<svg width="1440" height="1024" viewBox="0 0 1440 1024" fill="none" xmlns="http://www.w3.org/2000/svg">
<rect width="1440" height="1024" fill="#E5E5E5"/>
<rect width="1440" height="1024" fill="white"/>
<path d="M613.629 334.364C613.115 329.23 611.444 324.279 608.741 319.884C606.037 315.488 602.373 311.764 598.022 308.989C593.671 306.215 588.748 304.464 583.623 303.867C578.498 303.27 573.304 303.843 568.432 305.543L570.906 305.795C559.811 308.015 549.952 314.313 543.275 323.447C540.014 328.013 537.772 333.227 536.702 338.735C535.631 344.243 535.758 349.917 537.072 355.372C539.876 366.206 548.153 375.605 558.746 379.211C564.637 381.216 570.96 381.461 577.18 381.673C581.217 381.81 585.328 381.933 589.22 380.851C594.227 379.3 598.628 376.232 601.815 372.071C604.972 367.925 607.484 363.326 609.265 358.429C612.282 350.771 614.448 342.554 613.629 334.364Z" fill="#CF8A23"/>
<path d="M501.595 559.956C500.536 558.463 499.818 556.757 499.491 554.957C499.164 553.157 499.235 551.307 499.7 549.538C500.164 547.769 501.012 546.123 502.181 544.716C503.351 543.309 504.815 542.176 506.47 541.397L541.146 432.821L565.297 445.367L523.617 548.148C524.743 551.015 524.777 554.195 523.714 557.086C522.651 559.977 520.565 562.378 517.851 563.833C515.136 565.289 511.982 565.698 508.986 564.983C505.99 564.269 503.36 562.48 501.595 559.956H501.595Z" fill="#FFB6B6"/>
<path d="M529.924 447.836C529.592 447.101 529.423 446.303 529.427 445.497C529.432 444.69 529.61 443.894 529.95 443.163L541.827 417.628C542.999 413.673 545.691 410.344 549.314 408.371C552.936 406.397 557.193 405.941 561.152 407.101C565.11 408.261 568.447 410.944 570.431 414.56C572.415 418.177 572.884 422.432 571.735 426.394L567.766 454.367C567.652 455.166 567.368 455.93 566.933 456.609C566.497 457.288 565.921 457.864 565.242 458.3C564.564 458.736 563.8 459.02 563.001 459.134C562.203 459.247 561.39 459.188 560.616 458.959L533.445 450.908C532.671 450.679 531.957 450.287 531.349 449.756C530.741 449.226 530.255 448.571 529.924 447.836V447.836Z" fill="#F115B4"/>
<path d="M630.102 452.145C621.85 473.754 623.958 496.42 634.122 519.907H562.122C565.016 503.196 563.842 487.666 553.122 474.907L630.102 452.145Z" fill="#FFB6B6"/>
<path d="M545.836 412.433L567.145 396.936L602.014 387.25L631.071 393.062L632.779 409.118C634.857 428.649 633.954 448.382 630.102 467.642V467.642L554.554 485.076L546.805 471.516C546.805 471.516 529.371 454.082 542.931 434.711L545.836 412.433Z" fill="#F115B4"/>
<path d="M730.912 304.036C731.388 305.803 731.47 307.652 731.154 309.454C730.837 311.256 730.13 312.966 729.081 314.465C728.031 315.964 726.667 317.215 725.082 318.129C723.497 319.043 721.731 319.599 719.909 319.757L649.764 409.594L631.455 389.459L706.163 307.483C706.1 304.403 707.17 301.408 709.168 299.064C711.167 296.721 713.956 295.191 717.007 294.767C720.057 294.342 723.158 295.051 725.721 296.759C728.284 298.468 730.131 301.057 730.912 304.036V304.036Z" fill="#FFB6B6"/>
<path d="M665.493 399.398C665.549 400.202 665.432 401.009 665.148 401.764C664.865 402.519 664.422 403.203 663.849 403.771L643.861 423.61C641.392 426.915 637.713 429.106 633.631 429.702C629.549 430.299 625.397 429.252 622.085 426.792C618.773 424.332 616.572 420.659 615.964 416.579C615.357 412.498 616.392 408.344 618.842 405.025L632.258 380.16C632.64 379.45 633.172 378.831 633.815 378.346C634.459 377.86 635.2 377.518 635.987 377.345C636.775 377.171 637.59 377.169 638.378 377.339C639.167 377.509 639.909 377.847 640.555 378.33L663.254 395.295C663.901 395.778 664.435 396.394 664.821 397.102C665.208 397.81 665.437 398.593 665.493 399.398V399.398Z" fill="#F115B4"/>
<path d="M545.931 813.837H556.964L562.213 771.28H545.929L545.931 813.837Z" fill="#FFB6B6"/>
<path d="M542.195 808.395L559.636 807.354V814.826L576.218 826.278C577.037 826.844 577.654 827.656 577.978 828.597C578.303 829.538 578.318 830.558 578.022 831.508C577.726 832.459 577.134 833.289 576.332 833.879C575.53 834.469 574.561 834.787 573.566 834.787H552.801L549.222 827.396L547.824 834.787H539.995L542.195 808.395Z" fill="white"/>
<path d="M623.931 813.837H634.964L640.213 771.28H623.929L623.931 813.837Z" fill="#FFB6B6"/>
<path d="M620.194 808.395L637.636 807.354V814.826L654.218 826.278C655.037 826.844 655.654 827.656 655.978 828.597C656.303 829.538 656.318 830.558 656.022 831.508C655.726 832.459 655.134 833.289 654.332 833.879C653.53 834.469 652.561 834.787 651.565 834.787H630.801L627.222 827.396L625.824 834.787H617.995L620.194 808.395Z" fill="white"/>
<path d="M653.242 575.397V597.097L651.122 623.607C651.122 623.607 650.452 646.757 649.642 665.017C649.153 676.117 648.602 685.407 648.122 686.607C647.532 688.077 647.672 692.087 648.012 696.297C648.412 701.167 649.073 706.307 649.182 708.027C649.392 711.237 647.692 725.027 647.692 725.027C647.692 725.027 645.792 759.607 643.032 762.367C640.272 765.127 643.032 772.977 643.032 772.977C630.093 782.517 613.752 770.857 613.752 770.857C617.363 765.107 611.632 725.857 611.632 725.857C611.632 725.857 610.792 712.457 609.093 708.857C607.392 705.257 606.962 682.767 606.962 682.767V649.457C606.962 649.457 602.502 642.637 601.872 639.457C601.242 636.277 601.872 625.037 601.872 625.037L597.212 609.337L594.022 621.637C594.022 621.637 585.762 656.007 584.272 660.247C582.782 664.487 585.113 668.737 585.113 668.737C585.113 668.737 587.242 675.277 585.113 678.277C583.789 680.157 582.776 682.237 582.113 684.437C582.113 684.437 581.022 696.957 579.113 701.437C577.202 705.917 575.512 711.437 575.512 711.437C575.512 711.437 575.962 719.897 574.052 721.807C572.142 723.717 571.512 733.267 571.512 733.267C571.512 733.267 571.932 744.077 569.382 747.897C566.832 751.717 566.832 773.357 566.832 773.357C562.41 776.195 557.314 777.808 552.064 778.031C546.814 778.254 541.599 777.08 536.952 774.627C536.952 774.627 539.472 772.267 537.562 761.267C535.653 750.267 538.932 720.317 538.932 720.317C538.932 720.317 538.512 712.717 540.632 709.317C542.752 705.917 539.562 699.347 540.412 696.377C541.262 693.407 543.812 677.277 543.812 677.277C543.812 677.277 542.752 637.607 542.752 635.487C542.501 631.714 541.48 628.031 539.752 624.667C537.843 621.277 539.752 596.667 539.752 596.667C539.752 596.667 544.252 583.947 542.752 581.187C541.252 578.427 543.752 573.547 543.752 573.547C543.752 573.547 541.422 567.817 543.752 566.757C546.082 565.697 546.512 561.457 546.512 561.457L548.132 540.877C548.132 540.877 548.742 531.537 550.682 531.117C552.622 530.697 551.772 527.097 553.682 524.547C554.613 522.824 555.255 520.959 555.582 519.027C555.852 517.847 556.102 516.617 556.312 515.437C556.912 512.237 557.283 509.477 557.283 509.477C569.803 519.877 635.632 512.587 635.702 512.587C639.882 513.497 644.852 528.007 648.442 540.657C651.634 551.961 653.249 563.652 653.242 575.397Z" fill="#0E91F0"/>
<path d="M605.36 359.944C610.158 344.16 601.252 327.474 585.468 322.676C569.683 317.877 552.998 326.783 548.199 342.568C543.401 358.352 552.307 375.038 568.091 379.836C583.876 384.635 600.561 375.729 605.36 359.944Z" fill="#FFB6B6"/>
<path d="M543.016 356.462L554.583 354.055L556.713 338.705L560.706 352.781L566.235 351.631L567.477 342.676L569.807 350.887L610.887 342.34C610.041 338.274 608.402 334.415 606.065 330.983C603.727 327.55 600.737 324.612 597.264 322.335C593.791 320.059 589.904 318.489 585.824 317.714C581.744 316.94 577.552 316.977 573.486 317.823L567.532 319.062C559.322 320.77 552.126 325.67 547.528 332.684C542.93 339.698 541.307 348.251 543.016 356.462V356.462Z" fill="#CF8A23"/>
<path d="M568.134 307.506C570.923 296.359 565.521 284.401 557.158 276.521C548.795 268.64 537.882 264.111 527.08 260.189C518.467 257.062 508.377 254.342 500.581 259.159C494.317 263.029 491.6 270.547 488.019 276.981C481.195 289.241 470.185 298.636 457.004 303.446C443.822 308.256 429.35 308.16 416.233 303.176C420.856 316.598 436.781 323.162 450.947 322.251C465.113 321.339 478.198 314.815 491.394 309.584C504.59 304.352 519.27 300.311 532.833 304.5C538.557 306.268 543.764 309.424 549.431 311.366C555.099 313.308 561.732 313.887 566.784 310.665" fill="#CF8A23"/>
</svg>
