<?xml version="1.0" encoding="UTF-8"?>
<svg xmlns="http://www.w3.org/2000/svg" xmlns:xlink="http://www.w3.org/1999/xlink" viewBox="0 0 96 96" width="96px" height="96px">
<g id="surface14029477">
<path style=" stroke:none;fill-rule:nonzero;fill:rgb(100%,100%,100%);fill-opacity:1;" d="M 48 91.199219 C 24.140625 91.199219 4.800781 71.859375 4.800781 48 C 4.800781 24.140625 24.140625 4.800781 48 4.800781 C 71.859375 4.800781 91.199219 24.140625 91.199219 48 C 91.199219 71.859375 71.859375 91.199219 48 91.199219 Z M 48 91.199219 "/>
<path style=" stroke:none;fill-rule:nonzero;fill:rgb(0%,0%,0%);fill-opacity:1;" d="M 17.640625 17.640625 L 17.640625 78.359375 L 78.359375 78.359375 L 78.359375 17.640625 Z M 23.160156 23.160156 L 72.839844 23.160156 L 72.839844 72.839844 L 23.160156 72.839844 Z M 59.714844 45.238281 C 55.78125 45.238281 53.238281 47.757812 53.238281 51.089844 C 53.238281 54.707031 55.363281 56.4375 58.558594 57.800781 L 59.664062 58.273438 C 61.6875 59.164062 62.890625 59.6875 62.890625 61.207031 C 62.890625 62.492188 61.710938 63.410156 59.875 63.410156 C 57.699219 63.410156 56.464844 62.257812 55.519531 60.710938 L 51.902344 62.78125 C 53.1875 65.351562 55.859375 67.320312 59.976562 67.320312 C 64.171875 67.320312 67.320312 65.144531 67.320312 61.160156 C 67.320312 57.433594 65.195312 55.78125 61.417969 54.183594 L 60.316406 53.707031 C 58.40625 52.871094 57.589844 52.320312 57.589844 51.007812 C 57.589844 49.929688 58.402344 49.09375 59.714844 49.09375 C 61 49.09375 61.808594 49.644531 62.570312 51.007812 L 66.035156 48.78125 C 64.570312 46.210938 62.546875 45.238281 59.714844 45.238281 Z M 43.570312 45.503906 L 43.570312 60.582031 C 43.570312 62.785156 42.625 63.359375 41.179688 63.359375 C 39.660156 63.359375 39.003906 62.3125 38.324219 61.078125 L 34.707031 63.253906 C 35.753906 65.484375 37.824219 67.320312 41.363281 67.320312 C 45.296875 67.320312 48 65.21875 48 60.628906 L 48 45.503906 Z M 43.570312 45.503906 "/>
</g>
</svg>
