<svg width="262" height="527" viewBox="0 0 262 527" fill="none" xmlns="http://www.w3.org/2000/svg">
<rect width="262" height="527" fill="white" fill-opacity="0.6"/>
<path d="M141.39 526.135H131.874L130.175 517.15L125.824 526.135H100.584C99.3739 526.135 98.1957 525.748 97.2211 525.031C96.2466 524.314 95.5267 523.305 95.1667 522.15C94.8066 520.995 94.8252 519.755 95.2197 518.611C95.6143 517.467 96.3641 516.479 97.3597 515.792L117.516 501.871V492.788L138.717 494.053L141.39 526.135Z" fill="white"/>
<path d="M183.494 66.2692L112.219 67.1602C110.881 67.1586 109.599 66.6265 108.653 65.6805C107.707 64.7346 107.175 63.452 107.173 62.1142V38.5642C107.173 28.6008 111.131 19.0455 118.176 12.0004C125.221 4.95517 134.777 0.997223 144.74 0.997223C154.703 0.997223 164.259 4.95517 171.304 12.0004C178.349 19.0455 182.307 28.6008 182.307 38.5642L188.541 61.2232C188.539 62.561 188.007 63.8436 187.061 64.7896C186.115 65.7355 184.833 66.2676 183.495 66.2692H183.494Z" fill="#796329"/>
<path d="M135.647 367.355L113.647 478.911L142.947 484.436L161.382 387.874L135.647 367.355Z" fill="white"/>
<path d="M174.516 231.135L101.516 222.135L105.516 158.135H174.516V231.135Z" fill="#FFB6B6"/>
<path d="M144.429 66.9159C158.797 66.9159 170.445 55.2682 170.445 40.8999C170.445 26.5317 158.797 14.8839 144.429 14.8839C130.061 14.8839 118.413 26.5317 118.413 40.8999C118.413 55.2682 130.061 66.9159 144.429 66.9159Z" fill="#FFB8B8"/>
<path d="M111.352 97.9628L103.436 91.1349C103.436 91.1349 95.1429 93.1878 89.8152 107.933C84.4874 122.678 16.4838 221.533 16.4838 221.533L39.9911 232.243L118 147.075L111.352 97.9628Z" fill="#FC63FF"/>
<path d="M1.0589 239.909C1.281 238.324 1.85452 236.807 2.73904 235.463C3.62356 234.119 4.79757 232.982 6.17839 232.131C7.55922 231.281 9.11324 230.738 10.7311 230.541C12.3489 230.343 13.9911 230.496 15.5421 230.989L39.4346 199.965L46.3154 219.011L22.5708 245.552C21.5578 248.059 19.642 250.113 17.1873 251.324C14.7326 252.535 11.91 252.82 9.25549 252.124C6.60101 251.428 4.29962 249.799 2.78837 247.547C1.27712 245.295 0.661317 242.577 1.0579 239.909H1.0589Z" fill="#FFB6B6"/>
<path d="M171.539 39.1838H135.176C134.493 39.1831 133.833 38.9332 133.321 38.4811C132.809 38.029 132.479 37.4056 132.394 36.7278L131.923 32.9618C131.877 32.6 131.715 32.2628 131.461 32.0012C131.207 31.7395 130.875 31.5675 130.515 31.5111C130.154 31.4547 129.785 31.5169 129.463 31.6884C129.142 31.8598 128.884 32.1313 128.73 32.4618L126.345 37.5658C126.118 38.0482 125.759 38.4563 125.309 38.7426C124.86 39.0288 124.338 39.1815 123.805 39.1828H118.282C117.539 39.1839 116.827 38.8899 116.301 38.3656C115.775 37.8413 115.479 37.1295 115.478 36.3869C115.478 36.295 115.482 36.2033 115.491 36.1118L117.669 13.3628C117.715 12.8763 117.887 12.4103 118.168 12.0101C118.448 11.61 118.828 11.2894 119.269 11.0798C135.922 3.30575 152.81 3.31575 169.463 11.1098C169.885 11.3084 170.252 11.6092 170.529 11.9849C170.805 12.3607 170.984 12.7995 171.049 13.2618L174.312 35.9808C174.369 36.3785 174.341 36.7838 174.227 37.1694C174.114 37.5549 173.919 37.9116 173.656 38.2152C173.393 38.5188 173.067 38.7621 172.702 38.9287C172.336 39.0953 171.939 39.1813 171.537 39.1808L171.539 39.1838Z" fill="#796329"/>
<path d="M218.421 275.662C217.233 274.589 216.295 273.27 215.673 271.796C215.051 270.323 214.759 268.73 214.818 267.132C214.878 265.533 215.287 263.967 216.018 262.544C216.748 261.12 217.782 259.874 219.046 258.894L206.599 222.053L226.143 227.192L234.969 261.388C236.484 263.62 237.126 266.332 236.773 269.006C236.419 271.681 235.095 274.133 233.052 275.895C231.009 277.657 228.39 278.607 225.692 278.564C222.994 278.521 220.406 277.488 218.421 275.662Z" fill="#FFB6B6"/>
<path d="M185.9 99.6136L191.516 92.1349C191.516 92.1349 201.806 94.8387 207.034 109.584C212.262 124.329 233.682 242.136 233.682 242.136L210.615 252.846L179.378 148.73L185.9 99.6136Z" fill="#FC63FF"/>
<path d="M226.012 285.22C225.762 285.22 225.512 285.213 225.261 285.198L201.12 283.832L200.466 282.366L200.923 282.162L251.136 259.803L251.79 261.27L236.428 280.252C231.781 285.22 233.582 283.052 231.781 283.912C229.979 284.771 228.008 285.218 226.012 285.22Z" fill="white"/>
<path d="M216.055 309.338C214.908 309.336 213.787 308.998 212.83 308.367C211.873 307.735 211.121 306.838 210.668 305.784L200.531 282.135L230.577 282.239L251.22 260.408L261.12 283.525C261.72 284.941 261.741 286.536 261.18 287.967C260.618 289.399 259.518 290.554 258.115 291.185L218.433 308.829C217.684 309.164 216.874 309.337 216.055 309.338V309.338Z" fill="#BEB9B9"/>
<path d="M209.28 502.037L196.048 508.713L161 457.853L180.529 448L209.28 502.037Z" fill="#FFB6B6"/>
<path d="M133.878 512.732L119.248 510.359L121.442 452.801L143.034 456.301L133.878 512.732Z" fill="#FFB6B6"/>
<path d="M103.516 177.135C108.203 178.387 154.535 197.479 176.516 178.135L193.765 92.9708L173.1 86.4527L165.888 77.6832C165.107 76.7322 164.122 75.9693 163.006 75.4513C161.89 74.9333 160.671 74.6734 159.441 74.6911L133.805 75.0338C132.671 75.0504 131.552 75.3011 130.52 75.7704C129.487 76.2397 128.563 76.9173 127.805 77.7609L119.593 86.9186L101.044 91.2355L103.516 177.135Z" fill="#FC63FF"/>
<path d="M165.186 465.59L104.257 310.226C82.4511 250.661 101.934 209.608 102.134 209.201L102.234 209.001L102.442 208.925C104.944 218.663 161.674 218 174.674 203C182.262 209.374 192.361 224.382 194.525 242.316C196.786 261.556 195.071 281.055 189.487 299.605L165.487 380.965L195.18 447.856L165.186 465.59Z" fill="white"/>
<path d="M225.719 503.862L217.724 509.024L211.423 502.397L212.642 512.305L191.438 525.997C190.421 526.654 189.222 526.968 188.014 526.895C186.806 526.821 185.654 526.363 184.725 525.588C183.796 524.813 183.139 523.761 182.85 522.586C182.561 521.412 182.655 520.175 183.119 519.057L192.5 496.429L187.573 488.798L206.07 478.361L225.719 503.862Z" fill="white"/>
</svg>
