<svg xmlns="http://www.w3.org/2000/svg" width="500" height="500" style="width:100%;height:100%;transform:translate3d(0,0,0);content-visibility:visible" viewBox="0 0 500 500"><defs><path id="b" fill="red" d="M-33.907-88.387c.003 6.47.077 26.66.077 26.66l-9.266.498c-43.48 0-78.719 35.239-78.719 78.719v31.512c0 8.459 6.862 15.32 15.321 15.32h19.43c38.487 2.989 37.994 16.815 70.166 16.815h33.796c32.172 0 31.679-13.826 70.166-16.815h19.43c8.459 0 15.321-6.861 15.321-15.32V17.49c0-43.48-35.239-78.719-78.719-78.719l-9.163-.498-.01-.063s-.06-19.878-.057-26.192" style="display:block" transform="translate(250 339.58)"/><path id="c" fill="#F8C8C0" d="M-40.635-60.789c-13.374 5.148-16.93 16.614-15.64 40.044 1.29 23.43 25.99 42.12 56.26 42.12 30.55 0 55.41-19.03 56.29-42.75 0 0-.092-32.904-12.41-37.914-26.095-10.613-58.209-11.619-84.5-1.5z" style="display:block" transform="translate(248.135 300.539)"/><path id="e" fill="red" d="M-33.907-88.387c.003 6.47.077 26.66.077 26.66l-9.266.498c-43.48 0-78.719 35.239-78.719 78.719v31.512c0 8.459 6.862 15.32 15.321 15.32h19.43c38.487 2.989 37.994 16.815 70.166 16.815h33.796c32.172 0 31.679-13.826 70.166-16.815h19.43c8.459 0 15.321-6.861 15.321-15.32V17.49c0-43.48-35.239-78.719-78.719-78.719l-9.163-.498-.01-.063s-.06-19.878-.057-26.192" style="display:block" transform="translate(250 339.58)"/><path id="d" fill="red" d="M-33.907-88.387c.003 6.47.077 26.66.077 26.66l-9.266.498c-43.48 0-78.719 35.239-78.719 78.719v31.512c0 8.459 6.862 15.32 15.321 15.32h19.43c38.487 2.989 37.994 16.815 70.166 16.815h33.796c32.172 0 31.679-13.826 70.166-16.815h19.43c8.459 0 15.321-6.861 15.321-15.32V17.49c0-43.48-35.239-78.719-78.719-78.719l-9.163-.498-.01-.063s-.06-19.878-.057-26.192" style="display:block" transform="translate(250 339.58)"/><path id="g" fill="red" d="m-33.84-81.137.01 19.41-9.266.498c-43.48 0-78.719 35.239-78.719 78.719v31.512c0 8.459 6.862 15.32 15.321 15.32h19.43c38.487 2.989 37.994 16.815 70.166 16.815h33.796c32.172 0 31.679-13.826 70.166-16.815h19.431c8.459 0 15.32-6.861 15.32-15.32V17.49c0-43.48-35.239-78.719-78.719-78.719l-9.163-.498-.01-.063.01-18.942" style="display:block" transform="translate(250 339.58)"/><path id="h" fill="red" d="m-33.907-88.637.077 26.91-9.266.498c-43.48 0-78.719 35.239-78.719 78.719v31.512c0 8.459 6.862 15.32 15.321 15.32h19.43c38.487 2.989 37.994 16.815 70.166 16.815h33.796c32.172 0 31.679-13.826 70.166-16.815h19.431c8.459 0 15.32-6.861 15.32-15.32V17.49c0-43.48-35.239-78.719-78.719-78.719l-9.163-.498-.01-.063-.057-26.442" style="display:block" transform="translate(250 339.58)"/><path id="i" fill="red" d="m-33.907-88.637.077 26.91-9.266.498c-43.48 0-78.719 35.239-78.719 78.719v31.512c0 8.459 6.862 15.32 15.321 15.32h19.43c38.487 2.989 37.994 16.815 70.166 16.815h33.796c32.172 0 31.679-13.826 70.166-16.815h19.431c8.459 0 15.32-6.861 15.32-15.32V17.49c0-43.48-35.239-78.719-78.719-78.719l-9.163-.498-.01-.063-.057-26.442" style="display:block" transform="translate(250 339.58)"/><path id="j" fill="red" d="m-33.84-81.137.01 19.41-9.266.498c-43.48 0-78.719 35.239-78.719 78.719v31.512c0 8.459 6.862 15.32 15.321 15.32h19.43c38.487 2.989 37.994 16.815 70.166 16.815h33.796c32.172 0 31.679-13.826 70.166-16.815h19.431c8.459 0 15.32-6.861 15.32-15.32V17.49c0-43.48-35.239-78.719-78.719-78.719l-9.163-.498-.01-.063.01-18.942" style="display:block" transform="translate(250 339.58)"/><path id="l" fill="red" d="m-33.84-81.137.01 19.41-9.266.498c-43.48 0-78.719 35.239-78.719 78.719v31.512c0 8.459 6.862 15.32 15.321 15.32h19.43c38.487 2.989 37.994 16.815 70.166 16.815h33.796c32.172 0 31.679-13.826 70.166-16.815h19.431c8.459 0 15.32-6.861 15.32-15.32V17.49c0-43.48-35.239-78.719-78.719-78.719l-9.163-.498-.01-.063.01-18.942" style="display:block" transform="translate(250 339.58)"/><path id="m" fill="#4BB3FD" d="m-33.907-88.887.077 27.16-9.266.498c-43.48 0-78.719 35.239-78.719 78.719v31.512c0 8.459 6.862 15.32 15.321 15.32h19.43c38.487 2.989 37.994 16.815 70.166 16.815h33.796c32.172 0 31.679-13.826 70.166-16.815h19.43c8.459 0 15.321-6.861 15.321-15.32V17.49c0-43.48-35.239-78.719-78.719-78.719l-9.163-.498-.067-26.755" style="display:block" transform="translate(250 339.58)"/><path id="n" fill="#4BB3FD" d="m-33.907-88.887.077 27.16-9.266.498c-43.48 0-78.719 35.239-78.719 78.719v31.512c0 8.459 6.862 15.32 15.321 15.32h19.43c38.487 2.989 37.994 16.815 70.166 16.815h33.796c32.172 0 31.679-13.826 70.166-16.815h19.43c8.459 0 15.321-6.861 15.321-15.32V17.49c0-43.48-35.239-78.719-78.719-78.719l-9.163-.498-.067-26.755" style="display:block" transform="translate(250 339.58)"/><path id="o" fill="#4BB3FD" d="m-33.907-88.887.077 27.16-9.266.498c-43.48 0-78.719 35.239-78.719 78.719v31.512c0 8.459 6.862 15.32 15.321 15.32h19.43c38.487 2.989 37.994 16.815 70.166 16.815h33.796c32.172 0 31.679-13.826 70.166-16.815h19.43c8.459 0 15.321-6.861 15.321-15.32V17.49c0-43.48-35.239-78.719-78.719-78.719l-9.163-.498-.067-26.755" style="display:block" transform="translate(250 339.58)"/><path id="p" fill="#4AB3FC" d="m-33.907-87.637.077 25.91-9.266.498c-43.48 0-78.719 35.239-78.719 78.719v31.512c0 8.459 6.862 15.32 15.321 15.32h19.43c38.487 2.989 37.994 16.815 70.166 16.815h33.796c32.172 0 31.679-13.826 70.166-16.815h19.43c8.459 0 15.321-6.861 15.321-15.32V17.49c0-43.48-35.239-78.719-78.719-78.719l-9.163-.498-.01-.063-.057-25.442" style="display:block" transform="translate(250 339.58)"/><path id="q" fill="#4AB3FC" d="m-33.907-87.637.077 25.91-9.266.498c-43.48 0-78.719 35.239-78.719 78.719v31.512c0 8.459 6.862 15.32 15.321 15.32h19.43c38.487 2.989 37.994 16.815 70.166 16.815h33.796c32.172 0 31.679-13.826 70.166-16.815h19.43c8.459 0 15.321-6.861 15.321-15.32V17.49c0-43.48-35.239-78.719-78.719-78.719l-9.163-.498-.01-.063-.057-25.442" style="display:block" transform="translate(250 339.58)"/><path id="r" fill="#4AB3FC" d="m-33.907-87.637.077 25.91-9.266.498c-43.48 0-78.719 35.239-78.719 78.719v31.512c0 8.459 6.862 15.32 15.321 15.32h19.43c38.487 2.989 37.994 16.815 70.166 16.815h33.796c32.172 0 31.679-13.826 70.166-16.815h19.43c8.459 0 15.321-6.861 15.321-15.32V17.49c0-43.48-35.239-78.719-78.719-78.719l-9.163-.498-.01-.063-.057-25.442" style="display:block" transform="translate(250 339.58)"/><mask id="L" mask-type="alpha"><g filter="url(#a)"><path fill="#fff" d="M0 0h500v500H0z" opacity="0"/><use xmlns:ns1="http://www.w3.org/1999/xlink" ns1:href="#b"/></g></mask><mask id="K" mask-type="alpha"><use xmlns:ns2="http://www.w3.org/1999/xlink" ns2:href="#c"/></mask><mask id="I" mask-type="alpha"><use xmlns:ns3="http://www.w3.org/1999/xlink" ns3:href="#d"/></mask><mask id="J" mask-type="alpha"><use xmlns:ns4="http://www.w3.org/1999/xlink" ns4:href="#e"/></mask><mask id="G" mask-type="alpha"><g filter="url(#f)"><path fill="#fff" d="M0 0h500v500H0z" opacity="0"/><use xmlns:ns5="http://www.w3.org/1999/xlink" ns5:href="#g"/></g></mask><mask id="F" mask-type="alpha"><use xmlns:ns6="http://www.w3.org/1999/xlink" ns6:href="#h"/></mask><mask id="E" mask-type="alpha"><use xmlns:ns7="http://www.w3.org/1999/xlink" ns7:href="#i"/></mask><mask id="D" mask-type="alpha"><use xmlns:ns8="http://www.w3.org/1999/xlink" ns8:href="#j"/></mask><mask id="C" mask-type="alpha"><g filter="url(#k)"><path fill="#fff" d="M0 0h500v500H0z" opacity="0"/><use xmlns:ns9="http://www.w3.org/1999/xlink" ns9:href="#l"/></g></mask><mask id="A" mask-type="alpha"><use xmlns:ns10="http://www.w3.org/1999/xlink" ns10:href="#m"/></mask><mask id="z" mask-type="alpha"><use xmlns:ns11="http://www.w3.org/1999/xlink" ns11:href="#n"/></mask><mask id="y" mask-type="alpha"><use xmlns:ns12="http://www.w3.org/1999/xlink" ns12:href="#o"/></mask><mask id="w" mask-type="alpha"><use xmlns:ns13="http://www.w3.org/1999/xlink" ns13:href="#p"/></mask><mask id="v" mask-type="alpha"><use xmlns:ns14="http://www.w3.org/1999/xlink" ns14:href="#q"/></mask><mask id="u" mask-type="alpha"><use xmlns:ns15="http://www.w3.org/1999/xlink" ns15:href="#r"/></mask><clipPath id="s"><path d="M0 0h500v500H0z"/></clipPath><clipPath id="H"><path d="M0 0h500v500H0z"/></clipPath><clipPath id="B"><path d="M0 0h500v500H0z"/></clipPath><clipPath id="x"><path d="M0 0h500v500H0z"/></clipPath><clipPath id="t"><path d="M0 0h500v500H0z"/></clipPath><filter id="a" width="100%" height="100%" x="0%" y="0%" filterUnits="objectBoundingBox"><feComponentTransfer in="SourceGraphic"><feFuncA tableValues="1.0 0.0" type="table"/></feComponentTransfer></filter><filter id="f" width="100%" height="100%" x="0%" y="0%" filterUnits="objectBoundingBox"><feComponentTransfer in="SourceGraphic"><feFuncA tableValues="1.0 0.0" type="table"/></feComponentTransfer></filter><filter id="k" width="100%" height="100%" x="0%" y="0%" filterUnits="objectBoundingBox"><feComponentTransfer in="SourceGraphic"><feFuncA tableValues="1.0 0.0" type="table"/></feComponentTransfer></filter></defs><g clip-path="url(#s)"><g clip-path="url(#t)" opacity="0" style="display:block"><path fill="#B16836" d="M88.25 104.369C90.423 55.761 102.996-100.46.491-100.46h-.982c-102.505 0-92 158.943-87.546 206.551" opacity="1" style="display:block" transform="translate(248.972 188.148)"/><g opacity="1" style="display:block"><path fill="#4AB3FC" d="m216.16 258.443.01 19.41-9.266.498c-43.48 0-78.719 35.239-78.719 78.719v31.512c0 8.459 6.862 15.32 15.321 15.32h19.43c38.487 2.989 37.994 16.815 70.166 16.815h33.796c32.172 0 31.679-13.826 70.166-16.815h19.43c8.459 0 15.321-6.861 15.321-15.32V357.07c0-43.48-35.239-78.719-78.719-78.719l-9.163-.498-.01-.063.01-18.942" opacity="1"/><path fill="#F8C8C0" d="M193.36 279.794c1.29 23.43 25.99 42.12 56.26 42.12 30.55 0 55.41-19.03 56.29-42.75" opacity="1"/></g><g mask="url(#u)" opacity=".5" style="mix-blend-mode:multiply;display:block"><path fill="#4AB3FC" d="M43.689-47.52c-1.23-3.27-3.251-10.373-3.251-14.103-7.306-.037-21.969 2.358-21.969 2.358l-.034.007v.001C2.95-56.302-10.907-48.735-21.751-37.565a75.12 75.12 0 0 0-3.94 4.39v.01h-.01c-.19.24-.39.48-.59.72v.01c-7.387 9.079-12.59 19.908-15.11 31.34-2.831 10.667-1.467 35.503-1.76 46.7 0 3.31 1.09 6.38 2.93 8.84 2.785 3.685 7.141 5.933 11.83 5.91 1.746.083 20.239-.196 21.47.25-3.734-29.341-6.001-69.716 12.21-92.44 6.081-9.223 22.432-14.341 36.29-15.595.04 0 .79-.02 2.12-.09z" opacity="1" style="mix-blend-mode:multiply" transform="matrix(1.10986 0 0 1.08923 174.296 341.234)"/></g><g mask="url(#v)" style="display:block"><path fill="#F8C8C0" d="M193.36 279.794c1.29 23.43 25.99 42.12 56.26 42.12 30.55 0 55.41-19.03 56.29-42.75L250 222"/></g><g mask="url(#w)" style="mix-blend-mode:multiply;display:block"><path fill="#F8C8C0" fill-opacity=".5" d="M216.197 243.218c.007.218-26.753 22.847-26.753 22.847.495 2.775 7.417 28.25 7.975 29.28 18.525-7.264 20.177-4.972 50.517-11.495 12.991-3.022 37.27-17.63 44.178-28.345l-.26-16.318c-.332.178-68.759 6.786-75.657 4.03z"/></g><g opacity="1" style="display:block"><path fill="#F8C8C0" d="M206.25 139.25c12.881-14.425 56.394-39.024 79.25-32.25 25.771 7.638 26.047 63.457 26.047 63.457v33.919c0 34.139-27.681 61.821-61.82 61.821h-1.51c-34.139 0-61.82-27.682-61.82-61.821v-30.323" opacity="1"/><path fill="#B16836" d="M182.035 127.326c-3.983 14.548.42 47.589.42 47.589 1.331-.273 2.652-.567 3.941-.86 74.692-16.907 86.788-61.81 86.788-61.81 22.267 12.19 38.362 40.802 38.362 58.215.073 2.012 0 3.166 0 3.166 3.87-6.273 4.425-22.931 3.628-49.02 0 0-26.025-26.889-51.425-26.856-16.757.021-52.919 17.674-61.25 27" opacity="1"/></g><g style="mix-blend-mode:multiply;display:block"><path fill="#F8C8C0" fill-opacity=".5" d="M26.124 57.483C-3.751 40.581-2.16 3.792-1.282-26.558c.016-.549.014-10.781.029-11.325-7 2.63-14.8 5-23.48 6.96-.019.603-.02 10.892-.039 11.495-.914 29.611-1.148 59.317 27.416 76.911v.01c12.302 8.084 29.107 11.034 44.045 8.139a58.482 58.482 0 0 1-20.565-8.139v-.01z" style="mix-blend-mode:multiply" transform="translate(212.668 194.445) scale(1.07769)"/></g><path fill="#B16836" d="M-66.097-16.254c-3.983 14.548.42 47.589.42 47.589 1.331-.273 2.652-.567 3.941-.86 74.692-16.907 86.788-61.81 86.788-61.81C47.319-19.145 63.414 9.467 63.414 26.88c.073 2.012 0 3.166 0 3.166 3.87-6.273 4.425-22.931 3.628-49.02 0 0-26.025-26.889-51.425-26.856-16.757.021-52.919 17.674-61.25 27" opacity="1" style="display:block" transform="translate(248.132 143.58)"/><path fill="none" stroke="#121330" stroke-linecap="round" stroke-linejoin="round" stroke-width="7" d="M88.25 102.369C90.423 53.761 102.996-100.46.491-100.46c0 0 0 0 0 0h-.982s0 0 0 0c-102.505 0-92 156.943-87.546 204.551" opacity="1" style="display:block" transform="translate(248.972 188.148)"/><g fill="none" stroke="#121330" stroke-linecap="round" stroke-linejoin="round" stroke-width="7" opacity="1" style="display:block"><path d="M311.547 170.457v33.919c0 34.139-27.681 61.821-61.82 61.821h-1.51c-34.139 0-61.82-27.682-61.82-61.821v-30.323m-14.094 2.252" opacity="1"/><path d="M182.785 124.076c-3.983 14.548-.33 50.839-.33 50.839 1.331-.273 2.652-.567 3.941-.86 74.692-16.907 86.788-61.81 86.788-61.81 22.267 12.19 38.362 40.802 38.362 58.215.073 2.012 0 3.166 0 3.166 3.87-6.273 4.425-22.931 3.628-49.02m-3.627 49.017" opacity="1"/></g><g fill="none" stroke-linecap="round" stroke-linejoin="round" opacity="1" style="display:block"><path stroke="#121330" stroke-width="7" d="m216.16 258.443.01 19.41-9.266.498c-43.48 0-78.719 35.239-78.719 78.719v31.512c0 8.459 6.862 15.32 15.321 15.32h19.43c38.487 2.989 37.994 16.815 70.166 16.815h33.796c32.172 0 31.679-13.826 70.166-16.815h19.43c8.459 0 15.321-6.861 15.321-15.32V357.07c0-43.48-35.239-78.719-78.719-78.719l-9.163-.498-.01-.063.01-18.942" opacity="1"/><path stroke="#121330" stroke-width="7" d="M193.36 279.794c1.29 23.43 25.99 42.12 56.26 42.12 30.55 0 55.41-19.03 56.29-42.75" opacity="1"/><path stroke="#EBE6EE" stroke-width="15" d="M249.304 348.605s0 0 0 0m0 25.281s0 0 0 0m0 25.282s0 0 0 0" opacity="1"/></g></g><g clip-path="url(#x)" opacity="0" style="display:block"><path fill="#B16836" d="M88.25 104.369C90.423 55.761 102.996-100.46.491-100.46h-.982c-102.505 0-92 156.943-87.546 204.551" opacity="1" style="display:block" transform="translate(248.972 188.148)"/><g opacity="1" style="display:block"><path fill="#4AB3FC" d="m216.16 258.443.01 19.41-9.266.498c-43.48 0-78.719 35.239-78.719 78.719v31.512c0 8.459 6.862 15.32 15.321 15.32h19.43c38.487 2.989 37.994 16.815 70.166 16.815h33.796c32.172 0 31.679-13.826 70.166-16.815h19.43c8.459 0 15.321-6.861 15.321-15.32V357.07c0-43.48-35.239-78.719-78.719-78.719l-9.163-.498-.01-.063.01-18.942" opacity="1"/><path fill="#F8C8C0" d="M193.36 279.794c1.29 23.43 25.99 42.12 56.26 42.12 30.55 0 55.41-19.03 56.29-42.75" opacity="1"/></g><g mask="url(#y)" opacity=".5" style="mix-blend-mode:multiply;display:block"><path fill="#4AB3FC" d="M43.689-47.52c-1.23-3.27-3.251-10.373-3.251-14.103-7.306-.037-21.969 2.358-21.969 2.358l-.034.007v.001C2.95-56.302-10.907-48.735-21.751-37.565a75.12 75.12 0 0 0-3.94 4.39v.01h-.01c-.19.24-.39.48-.59.72v.01c-7.387 9.079-12.59 19.908-15.11 31.34-2.831 10.667-1.467 35.503-1.76 46.7 0 3.31 1.09 6.38 2.93 8.84 2.785 3.685 7.141 5.933 11.83 5.91 1.746.083 20.239-.196 21.47.25-3.734-29.341-6.001-69.716 12.21-92.44 6.081-9.223 22.432-14.341 36.29-15.595.04 0 .79-.02 2.12-.09z" opacity="1" style="mix-blend-mode:multiply" transform="matrix(1.10986 0 0 1.08923 174.296 341.234)"/></g><g mask="url(#z)" style="display:block"><path fill="#F8C8C0" d="M193.36 279.794c1.29 23.43 25.99 42.12 56.26 42.12 30.55 0 55.41-19.03 56.29-42.75L250 197.5"/></g><g mask="url(#A)" style="mix-blend-mode:multiply;display:block"><path fill="#F8C8C0" fill-opacity=".5" d="M216.198 243.218c.007.218-26.753 22.847-26.753 22.847.495 2.775 7.417 28.25 7.975 29.28 18.525-7.264 20.177-4.972 50.517-11.495 12.991-3.022 37.27-17.63 44.178-28.345l-.26-16.318c-.332.178-68.759 6.786-75.657 4.03z"/></g><g opacity="1" style="display:block"><path fill="#F8C8C0" d="M211.5 137c12.654-14.29 50.461-35.87 72.5-28.5 25.209 8.43 27.547 61.957 27.547 61.957v33.919c0 34.139-27.681 61.821-61.82 61.821h-1.51c-34.139 0-61.82-27.682-61.82-61.821v-30.323" opacity="1"/><path fill="#B16836" d="M182.785 124.076c-3.983 14.548-.33 50.839-.33 50.839 1.331-.273 2.652-.567 3.941-.86 74.692-16.907 86.788-61.81 86.788-61.81 22.267 12.19 38.362 40.802 38.362 58.215.073 2.012 0 3.166 0 3.166 3.87-6.273 4.425-22.931 3.628-49.02 0 0-27.982-26.896-52.425-24.606-20.859 1.955-56.703 23.818-66.5 35.75" opacity="1"/></g><g style="mix-blend-mode:multiply;display:block"><path fill="#F8C8C0" fill-opacity=".5" d="M26.124 57.483C-3.751 40.581-2.16 3.792-1.282-26.558c.016-.549.014-10.781.029-11.325-7 2.63-14.8 5-23.48 6.96-.019.603-.02 10.892-.039 11.495-.914 29.611-1.148 59.317 27.416 76.911v.01c12.302 8.084 29.107 11.034 44.045 8.139a58.482 58.482 0 0 1-20.565-8.139v-.01z" style="mix-blend-mode:multiply" transform="translate(212.668 194.445) scale(1.07769)"/></g><path fill="#B16836" d="M-65.347-19.504c-3.983 14.548-.33 50.839-.33 50.839 1.331-.273 2.652-.567 3.941-.86 74.692-16.907 86.788-61.81 86.788-61.81C47.319-19.145 63.414 9.467 63.414 26.88c.073 2.012 0 3.166 0 3.166 3.87-6.273 4.425-22.931 3.628-49.02 0 0-27.982-26.896-52.425-24.606-20.859 1.955-56.703 23.818-66.5 35.75" opacity="1" style="display:block" transform="translate(248.132 143.58)"/><path fill="none" stroke="#121330" stroke-linecap="round" stroke-linejoin="round" stroke-width="7" d="M88.25 102.369C90.423 53.761 102.996-100.46.491-100.46c0 0 0 0 0 0h-.982s0 0 0 0c-102.505 0-92 156.943-87.546 204.551" opacity="1" style="display:block" transform="translate(248.972 188.148)"/><g fill="none" stroke="#121330" stroke-linecap="round" stroke-linejoin="round" stroke-width="7" opacity="1" style="display:block"><path d="M311.547 170.457v33.919c0 34.139-27.681 61.821-61.82 61.821h-1.51c-34.139 0-61.82-27.682-61.82-61.821v-30.323m-14.094 2.252" opacity="1"/><path d="M182.785 124.076c-3.983 14.548-.33 50.839-.33 50.839 1.331-.273 2.652-.567 3.941-.86 74.692-16.907 86.788-61.81 86.788-61.81 22.267 12.19 38.362 40.802 38.362 58.215.073 2.012 0 3.166 0 3.166 3.87-6.273 4.425-22.931 3.628-49.02m-3.627 49.017" opacity="1"/></g><g fill="none" stroke-linecap="round" stroke-linejoin="round" opacity="1" style="display:block"><path stroke="#121330" stroke-width="7" d="m216.16 258.443.01 19.41-9.266.498c-43.48 0-78.719 35.239-78.719 78.719v31.512c0 8.459 6.862 15.32 15.321 15.32h19.43c38.487 2.989 37.994 16.815 70.166 16.815h33.796c32.172 0 31.679-13.826 70.166-16.815h19.43c8.459 0 15.321-6.861 15.321-15.32V357.07c0-43.48-35.239-78.719-78.719-78.719l-9.163-.498-.01-.063.01-18.942" opacity="1"/><path stroke="#121330" stroke-width="7" d="M193.36 279.794c1.29 23.43 25.99 42.12 56.26 42.12 30.55 0 55.41-19.03 56.29-42.75" opacity="1"/><path stroke="#EBE6EE" stroke-width="15" d="M249.304 348.605s0 0 0 0m0 25.281s0 0 0 0m0 25.282s0 0 0 0" opacity="1"/></g></g><g clip-path="url(#B)" opacity="0" style="display:block"><g mask="url(#C)" style="display:block"><path fill="#B16836" d="M249.463 87.688h-.982c-102.505 0-92.481 175.313-88.027 222.921 0 0 8.546 63.892 92.546 54.392 83.757-9.473 83.827-52.392 83.827-52.392C339 264.001 351.968 87.688 249.463 87.688z"/></g><path fill="#4AB3FC" d="m-25.09-82.637-8.74 20.91-9.266.498c-43.48 0-78.719 35.239-78.719 78.719v31.512c0 8.459 6.862 15.32 15.321 15.32h19.43c38.487 2.989 37.994 16.815 70.166 16.815h33.796c32.172 0 31.679-13.826 70.166-16.815h19.43c8.459 0 15.321-6.861 15.321-15.32V17.49c0-43.48-35.239-78.719-78.719-78.719l-9.163-.498-.01-.063-6.49-22.192" opacity="1" style="display:block" transform="translate(250 339.58)"/><g mask="url(#D)" opacity=".5" style="mix-blend-mode:multiply;display:block"><path fill="#4AB3FC" d="M43.689-47.52c-1.23-3.27-3.251-10.373-3.251-14.103-7.306-.037-21.969 2.358-21.969 2.358l-.034.007v.001C2.95-56.302-10.907-48.735-21.751-37.565a75.12 75.12 0 0 0-3.94 4.39v.01h-.01c-.19.24-.39.48-.59.72v.01c-7.387 9.079-12.59 19.908-15.11 31.34-2.831 10.667-1.467 35.503-1.76 46.7 0 3.31 1.09 6.38 2.93 8.84 2.785 3.685 7.141 5.933 11.83 5.91 1.746.083 20.239-.196 21.47.25-3.734-29.341-6.001-69.716 12.21-92.44 6.081-9.223 22.432-14.341 36.29-15.595.04 0 .79-.02 2.12-.09z" opacity="1" style="mix-blend-mode:multiply" transform="matrix(1.10986 0 0 1.08923 174.296 341.234)"/></g><g mask="url(#E)" style="display:block"><path fill="#F8C8C0" d="M193.36 279.794c1.29 23.43 25.99 42.12 56.26 42.12 30.55 0 55.41-19.03 56.29-42.75L257.75 205.5"/></g><g mask="url(#F)" style="mix-blend-mode:multiply;display:block"><path fill="#F8C8C0" fill-opacity=".5" d="M216.197 243.218c.007.218-26.753 22.847-26.753 22.847.495 2.775 7.417 28.25 7.975 29.28 18.525-7.264 20.177-4.972 50.517-11.495 12.991-3.022 37.27-17.63 44.178-28.345l-.26-16.318c-.332.178-68.759 6.786-75.657 4.03z"/></g><g opacity="1" style="display:block"><path fill="#F8C8C0" d="M291.63 104.636C271.706 94.633 239.143 112.044 221 125c-16.284 11.628-34.603 49.053-34.603 49.053v30.323c0 34.139 27.681 61.821 61.82 61.821h1.51c34.139 0 61.82-27.682 61.82-61.821v-33.919s1.457-55.09-19.917-65.821z" opacity="1"/><path fill="#B16836" d="M184.285 126.576c-3.983 14.548-1.83 48.339-1.83 48.339 1.331-.273 2.652-.567 3.941-.86 74.692-16.907 86.788-61.81 86.788-61.81 22.267 12.19 38.362 40.802 38.362 58.215.073 2.012 0 3.166 0 3.166 3.87-6.273 11.562-34.484 2.128-47.02-14.163-18.82-18.321-24.183-31.675-29.856-11.126-4.726-36.25 1-36.25 1" opacity="1"/></g><g style="mix-blend-mode:multiply;display:block"><path fill="#F8C8C0" fill-opacity=".5" d="M26.124 57.483C-3.751 40.581-2.16 3.792-1.282-26.558c.016-.549.014-10.781.029-11.325-7 2.63-14.8 5-23.48 6.96-.019.603-.02 10.892-.039 11.495-.914 29.611-1.148 59.317 27.416 76.911v.01c12.302 8.084 29.107 11.034 44.045 8.139a58.482 58.482 0 0 1-20.565-8.139v-.01z" style="mix-blend-mode:multiply" transform="translate(212.668 194.445) scale(1.07769)"/></g><path fill="#B16836" d="M-63.847-17.004c-3.983 14.548-1.83 48.339-1.83 48.339 1.331-.273 2.652-.567 3.941-.86 74.692-16.907 86.788-61.81 86.788-61.81C47.319-19.145 63.414 9.467 63.414 26.88c.073 2.012 0 3.166 0 3.166 3.87-6.273 11.562-34.484 2.128-47.02-14.163-18.82-18.321-24.183-31.675-29.856-11.126-4.726-36.25 1-36.25 1" opacity="1" style="display:block" transform="translate(248.132 143.58)"/><g mask="url(#G)" style="display:block"><path fill="none" stroke="#121330" stroke-linecap="round" stroke-linejoin="round" stroke-width="7" d="M249.463 87.688h-.982s0 0 0 0c-102.505 0-92.481 175.313-88.027 222.921 0 0 8.546 63.892 92.546 54.392 83.757-9.473 83.827-52.392 83.827-52.392C339 264.001 351.968 87.688 249.463 87.688c0 0 0 0 0 0z"/></g><g fill="none" stroke="#121330" stroke-linecap="round" stroke-linejoin="round" stroke-width="7" opacity="1" style="display:block"><path d="M311.547 170.457v33.919c0 34.139-27.681 61.821-61.82 61.821h-1.51c-34.139 0-61.82-27.682-61.82-61.821v-30.323m-14.094 2.252" opacity="1"/><path d="M184.285 126.576c-3.983 14.548-1.83 48.339-1.83 48.339 1.331-.273 2.652-.567 3.941-.86 74.692-16.907 86.788-61.81 86.788-61.81 22.267 12.19 38.362 40.802 38.362 58.215.073 2.012 0 3.166 0 3.166 3.87-6.273 2.925-20.931 2.128-47.02m-2.127 47.017" opacity="1"/></g><g fill="none" stroke-linecap="round" stroke-linejoin="round" opacity="1" style="display:block"><path stroke="#121330" stroke-width="7" d="m216.16 258.443.01 19.41-9.266.498c-43.48 0-78.719 35.239-78.719 78.719v31.512c0 8.459 6.862 15.32 15.321 15.32h19.43c38.487 2.989 37.994 16.815 70.166 16.815h33.796c32.172 0 31.679-13.826 70.166-16.815h19.43c8.459 0 15.321-6.861 15.321-15.32V357.07c0-43.48-35.239-78.719-78.719-78.719l-9.163-.498-.01-.063.01-18.942" opacity="1"/><path stroke="#121330" stroke-width="7" d="M193.36 279.794c1.29 23.43 25.99 42.12 56.26 42.12 30.55 0 55.41-19.03 56.29-42.75" opacity="1"/><path stroke="#EBE6EE" stroke-width="15" d="M249.304 348.605s0 0 0 0m0 25.281s0 0 0 0m0 25.282s0 0 0 0" opacity="1"/></g></g><g clip-path="url(#H)" style="display:block"><path fill="#B16836" d="M87.855 112.46C88.856 89.662 102.996-100.46.491-100.46h-.982c-102.505 0-88.841 190.122-87.84 212.92" style="display:block" transform="translate(249.972 188.148)"/><g style="display:block"><path fill="#4AB3FC" d="m216.16 258.443.01 19.41-9.266.498c-43.48 0-78.719 35.239-78.719 78.719v31.512c0 8.459 6.862 15.32 15.321 15.32h19.43c38.487 2.989 37.994 16.815 70.166 16.815h33.796c32.172 0 31.679-13.826 70.166-16.815h19.43c8.459 0 15.321-6.861 15.321-15.32V357.07c0-43.48-35.239-78.719-78.719-78.719l-9.163-.498-.01-.063.01-18.942"/><path fill="none" stroke="#EBE6EE" stroke-linecap="round" stroke-linejoin="round" stroke-width="7" d="M249.304 348.605s0 0 0 0m0 25.281s0 0 0 0m0 25.282s0 0 0 0"/></g><g mask="url(#I)" opacity=".5" style="mix-blend-mode:multiply;display:block"><path fill="#4AB3FC" d="M43.689-47.52c-1.23-3.27-3.251-10.373-3.251-14.103-7.306-.037-21.969 2.358-21.969 2.358l-.034.007v.001C2.95-56.302-10.907-48.735-21.751-37.565a75.12 75.12 0 0 0-3.94 4.39v.01h-.01c-.19.24-.39.48-.59.72v.01c-7.387 9.079-12.59 19.908-15.11 31.34-2.831 10.667-1.467 35.503-1.76 46.7 0 3.31 1.09 6.38 2.93 8.84 2.785 3.685 7.141 5.933 11.83 5.91 1.746.083 20.239-.196 21.47.25-3.734-29.341-6.001-69.716 12.21-92.44 6.081-9.223 22.432-14.341 36.29-15.595.04 0 .79-.02 2.12-.09z" opacity="1" style="mix-blend-mode:multiply" transform="matrix(1.10986 0 0 1.08923 174.296 341.234)"/></g><g mask="url(#J)" style="display:block"><path fill="#F8C8C0" d="M207.5 239.75c-13.374 5.148-16.93 16.614-15.64 40.044 1.29 23.43 25.99 42.12 56.26 42.12 30.55 0 55.41-19.03 56.29-42.75 0 0-.092-32.904-12.41-37.914-26.095-10.613-58.209-11.619-84.5-1.5z"/></g><g mask="url(#K)" style="mix-blend-mode:multiply;display:block"><path fill="#F8C8C0" fill-opacity=".5" d="M216.198 243.218c.007.218.077 34.684.083 34.895-7.764-.036-24.586 1.63-24.586 1.63l-3.75.822c.496 2.775 1.741 5.127 2.753 7.776 0 0 2.788 6.474 3.346 7.504 18.525-7.264 23.553-5.472 53.893-11.995 12.991-3.022 29.27-10.13 36.179-20.845l-.01-19.818c-.332.178-61.01 2.786-67.908.03z"/></g><g style="display:block"><path fill="#F8C8C0" d="M242.5 108.5c-30.767 15.245-55.103 65.553-55.103 65.553v30.323c0 34.139 27.681 61.821 61.82 61.821h1.51c34.139 0 61.82-27.682 61.82-61.821v-33.919s-5.368-40.741-16.047-54.957c-8.111-10.797-41.9-12.996-54-7z"/><path fill="#B16836" d="M265.249 95c-28.657-.007-73.231 17.778-77.214 32.326-3.983 14.548-4.58 47.589-4.58 47.589 1.331-.273 2.652-.567 3.941-.86 74.692-16.907 86.788-61.81 86.788-61.81 22.267 12.19 38.362 40.802 38.362 58.215.073 2.012 0 3.166 0 3.166 3.87-6.273.175-20.681-.622-46.77 0 0-27.119-31.851-46.675-31.856z"/></g><g style="mix-blend-mode:multiply;display:block"><path fill="#F8C8C0" fill-opacity=".5" d="M26.124 57.483C-3.751 40.581-2.16 3.792-1.282-26.558c.016-.549.014-10.781.029-11.325-7 2.63-14.8 5-23.48 6.96-.019.603-.02 10.892-.039 11.495-.914 29.611-1.148 59.317 27.416 76.911v.01c12.302 8.084 29.107 11.034 44.045 8.139a58.482 58.482 0 0 1-20.565-8.139v-.01z" style="mix-blend-mode:multiply" transform="translate(213.249 194.445) scale(1.07769)"/></g><path fill="#B16836" d="M16.117-48.58c-28.657-.007-73.231 17.778-77.214 32.326-3.983 14.548-4.58 47.589-4.58 47.589 1.331-.273 2.652-.567 3.941-.86 74.692-16.907 86.788-61.81 86.788-61.81C47.319-19.145 63.414 9.467 63.414 26.88c.073 2.012 0 3.166 0 3.166 3.87-6.273.175-20.681-.622-46.77 0 0-27.119-31.851-46.675-31.856z" style="display:block" transform="translate(249.132 143.58)"/><g mask="url(#L)" style="display:block"><path fill="none" stroke="#121330" stroke-linecap="round" stroke-linejoin="round" stroke-width="7" d="M338.065 288.608c1.001-22.798 14.903-200.92-87.602-200.92 0 0 0 0 0 0h-.982s0 0 0 0c-102.505 0-88.603 178.122-87.602 200.92"/></g><g fill="none" stroke-linecap="round" stroke-linejoin="round" style="display:block"><path stroke="#121330" stroke-width="7" d="m216.16 258.443.01 19.41-9.266.498c-43.48 0-78.719 35.239-78.719 78.719v31.512c0 8.459 6.862 15.32 15.321 15.32h19.43c38.487 2.989 37.994 16.815 70.166 16.815h33.796c32.172 0 31.679-13.826 70.166-16.815h19.43c8.459 0 15.321-6.861 15.321-15.32V357.07c0-43.48-35.239-78.719-78.719-78.719l-9.163-.498-.01-.063.01-18.942"/><path stroke="#121330" stroke-width="7" d="M191.86 279.794c1.29 23.43 25.99 42.12 56.26 42.12 30.55 0 55.41-19.03 56.29-42.75"/><path stroke="#EBE6EE" stroke-width="15" d="M249.304 348.605s0 0 0 0m0 25.281s0 0 0 0m0 25.282s0 0 0 0"/></g><g fill="none" stroke="#121330" stroke-linecap="round" stroke-linejoin="round" stroke-width="7" style="display:block"><path d="M312.547 170.457v33.919c0 34.139-27.681 61.821-61.82 61.821h-1.51c-34.139 0-61.82-27.682-61.82-61.821v-30.323m-14.094 2.252"/><path d="M185.285 126.576c-3.983 14.548-1.83 48.339-1.83 48.339 1.331-.273 2.652-.567 3.941-.86 74.692-16.907 86.788-61.81 86.788-61.81 22.267 12.19 38.362 40.802 38.362 58.215.073 2.012 0 3.166 0 3.166 3.87-6.273 2.925-20.931 2.128-47.02m-2.127 47.017"/></g></g><g class="com" style="display:none"><path/><path/><path/><path/><path/><path/><path/><path/><path/><path/><path/><path/></g></g></svg>