<svg xmlns="http://www.w3.org/2000/svg" width="500" height="500" style="width:100%;height:100%;transform:translate3d(0,0,0);content-visibility:visible" viewBox="0 0 500 500"><defs><clipPath id="a"><path d="M0 0h500v500H0z"/></clipPath></defs><g clip-path="url(#a)"><path fill="none" stroke="#121330" stroke-miterlimit="15.6" stroke-width="7" d="M-56.55 23.632V-4.132c0-10.762 8.738-19.5 19.5-19.5h74.1c10.762 0 19.5 8.738 19.5 19.5v27.764" style="display:block" transform="translate(249.95 127.283)"/><g fill="#B16836" style="display:block"><path d="M365 144.549H131c-22.608 0-41 18.393-41 41v163.8c0 22.606 18.392 41 41 41h234c22.606 0 41-18.394 41-41v-163.8c0-22.607-18.394-41-41-41z"/><path d="M-158-51.821v62.642c0 22.607 18.393 41 41 41h234c22.607 0 41-18.393 41-41v-62.642h-316z" opacity=".5" style="mix-blend-mode:multiply" transform="translate(248 338.528)"/></g><g opacity=".5" style="mix-blend-mode:multiply;display:block"><path fill="#B16836" d="M16.719-71.079c-22.607 0-41 18.393-41 41V71.079h22.024V-32.304c0-17.708 11.047-32.851 26.538-38.775h-7.562z" opacity="1" style="mix-blend-mode:multiply" transform="translate(114.28 215.63)"/></g><g fill="#FFC638" style="display:block"><path d="M286.633 284.71h-73.43a2 2 0 0 0-2 2v35.765a2 2 0 0 0 2 2h73.43a2 2 0 0 0 2-2V286.71a2 2 0 0 0-2-2z"/><path d="M8.933-19.883H-6.933a2 2 0 0 0-2 2v35.766a2 2 0 0 0 2 2H8.933v-39.766z" opacity=".5" style="mix-blend-mode:multiply" transform="translate(220.137 304.592)"/></g><path fill="none" stroke="#121330" stroke-miterlimit="15.6" stroke-width="7" d="M-158 0h316" style="display:block" transform="translate(248 286.707)"/><path fill="none" stroke="#121330" stroke-width="1.89" d="M-14.5-27.125V-32.5c0-2.76 2.24-5 5-5h19c2.76 0 5 2.24 5 5v5.5" style="display:block" transform="matrix(3.9 0 0 3.9 250 250)"/><g fill="none" stroke="#121330" stroke-width="7.371" style="display:block"><path d="M92.05 286.808h311.025"/><path stroke-linecap="round" stroke-linejoin="round" d="M213.254 290.463v32.112h73.43V289"/><path d="M404.05 185.65v163.8c0 21.524-17.476 39-39 39h-234c-21.524 0-39-17.476-39-39v-163.8c0-21.524 17.476-39 39-39h234c21.524 0 39 17.476 39 39z"/></g><g class="com" style="display:none"><path/><path/><path/><path/><path/><path/><path/><path/><path/><path/><path/><path/></g></g></svg>